<?xml version="1.0" standalone="no"?><!DOCTYPE svg PUBLIC "-//W3C//DTD SVG 1.1//EN" "http://www.w3.org/Graphics/SVG/1.1/DTD/svg11.dtd"><svg t="1542539879193" class="icon" style="" viewBox="0 0 1024 1024" version="1.1" xmlns="http://www.w3.org/2000/svg" p-id="4903" xmlns:xlink="http://www.w3.org/1999/xlink" width="200" height="200"><defs><style type="text/css"></style></defs><path d="M469.726 139.266v0l-217.47 163.104h-135.985c-37.804 0-67.889 30.141-67.889 67.327v273.082c0 36.683 30.397 67.327 67.889 67.327h135.985l217.47 163.104c30.237 22.675 54.353 10.267 54.353-27.359v-679.232c0-37.152-24.338-49.873-54.353-27.359z" p-id="4904"></path><path d="M887.187 538.378l69.126-69.126c22.907-22.907 22.907-60.044 0-82.958v0c-22.907-22.907-60.044-22.907-82.958 0l-69.126 69.126-69.126-69.126c-22.907-22.907-60.044-22.907-82.958 0s-22.907 60.044 0 82.958l69.126 69.126-69.126 69.126c-22.907 22.907-22.907 60.044 0 82.958v0c22.907 22.907 60.044 22.907 82.958 0l69.126-69.126 69.126 69.126c22.907 22.907 60.044 22.907 82.958 0v0c22.907-22.907 22.907-60.044 0-82.958l-69.126-69.126z" p-id="4905"></path></svg>