<?xml version="1.0" standalone="no"?><!DOCTYPE svg PUBLIC "-//W3C//DTD SVG 1.1//EN" "http://www.w3.org/Graphics/SVG/1.1/DTD/svg11.dtd"><svg t="1542543476230" class="icon" style="" viewBox="0 0 1024 1024" version="1.1" xmlns="http://www.w3.org/2000/svg" p-id="1420" xmlns:xlink="http://www.w3.org/1999/xlink" width="200" height="200"><defs><style type="text/css"></style></defs><path d="M701 183.1c-27.9-69.6-95.7-118.9-175.2-118.9-104.4 0-189 84.6-189 189l-0.1 278.3L701 183.1z m67.8 394.1c-24.6 108.2-127.4 189-243 189-52.4 0-101.6-17.2-142.6-45.4l-37.9 38.4c44.1 32.7 96.7 54.6 153.6 59.7v55.2h-26.3c-15.2 0-27.9 12.4-27.6 27.6 0.3 14.7 12.3 26.4 27 26.4h108c14.7 0 26.7-11.8 27-26.4 0.3-15.2-12.5-27.6-27.6-27.6h-26.3V819c133.3-12 246.1-112.2 270-241.8h-54.3zM241.7 624l42.3-42.8c-0.3-1.3-1-2.5-1.3-3.9h-53.9c3 16 7.3 31.6 12.9 46.7z m569.7-478.4L174.6 755.3l38.5 38 637-609.4-38.7-38.3z m-96.6 377.6v-142L410.7 672.1c32 24.8 71.6 40.1 115.1 40.1 104.4 0 189-84.6 189-189z" p-id="1421"></path></svg>