<?xml version="1.0" standalone="no"?><!DOCTYPE svg PUBLIC "-//W3C//DTD SVG 1.1//EN" "http://www.w3.org/Graphics/SVG/1.1/DTD/svg11.dtd"><svg t="1542607799729" class="icon" style="" viewBox="0 0 1024 1024" version="1.1" xmlns="http://www.w3.org/2000/svg" p-id="7815" xmlns:xlink="http://www.w3.org/1999/xlink" width="200" height="200"><defs><style type="text/css"></style></defs><path d="M887.472 1024H136.528A136.512 136.512 0 0 1 0 887.52V136.48A136.512 136.512 0 0 1 136.528 0h750.944A136.512 136.512 0 0 1 1024 136.48v751.04A136.512 136.512 0 0 1 887.472 1024zM960 136.48A72.56 72.56 0 0 0 887.472 64H136.528A72.56 72.56 0 0 0 64 136.48v751.04A72.56 72.56 0 0 0 136.528 960h750.944A72.56 72.56 0 0 0 960 887.52V136.48zM720 640.96A119.6 119.6 0 0 1 614.192 464H409.808A120.08 120.08 0 1 1 304 400h416a120.48 120.48 0 0 1 0 240.96z m-472.464-120.48A56.48 56.48 0 1 0 304 464a56.496 56.496 0 0 0-56.464 56.48zM720 464a56.48 56.48 0 1 0 56.464 56.48A56.496 56.496 0 0 0 720 464z" p-id="7816"></path></svg>