<?xml version="1.0" standalone="no"?><!DOCTYPE svg PUBLIC "-//W3C//DTD SVG 1.1//EN" "http://www.w3.org/Graphics/SVG/1.1/DTD/svg11.dtd"><svg t="1551070403730" class="icon" style="" viewBox="0 0 1024 1024" version="1.1" xmlns="http://www.w3.org/2000/svg" p-id="1270" xmlns:xlink="http://www.w3.org/1999/xlink" width="200" height="200"><defs><style type="text/css"></style></defs><path d="M476.936925 546.649148c-4.836145-4.926196-11.531638-8.014534-18.98233-8.014534l-239.052514 0.010233c-14.71412 0-26.644847 11.92561-26.644847 26.643823 0 14.72026 11.930727 26.637684 26.644847 26.637684l176.615487 0L214.360647 773.084297l37.682227 37.686321 180.862207-180.863231-0.841158 175.191044c0 14.70798 11.929704 26.643823 26.644847 26.643823s26.64587-11.935843 26.64587-26.643823L485.354642 565.28867C485.354642 557.388746 482.088248 551.022759 476.936925 546.649148zM831.741743 85.676311l-639.48451 0c-58.862619 0-106.58041 47.712675-106.58041 106.58041l0 639.485533c0 58.867736 47.717791 106.581434 106.58041 106.581434l639.48451 0c58.863642 0 106.581434-47.713698 106.581434-106.581434L938.323177 192.256722C938.323177 133.388986 890.605386 85.676311 831.741743 85.676311zM885.031437 831.742255c0 29.430286-23.856337 53.289694-53.289694 53.289694l-639.48451 0c-29.429263 0-53.290717-23.859407-53.290717-53.289694L138.966517 192.256722c0-29.437449 23.861454-53.290717 53.290717-53.290717l639.48451 0c29.434379 0 53.289694 23.853267 53.289694 53.290717L885.031437 831.742255zM805.09792 432.063413l-176.62265 0.008186L809.638329 250.907517l-37.684274-37.678134-180.859138 180.861184 0.841158-175.188998c0-14.719236-11.93175-26.644847-26.647917-26.644847-14.712073 0-26.643823 11.92561-26.643823 26.644847l0 239.807714c0 7.892761 3.2623 14.259772 8.414647 18.639522 4.835122 4.927219 11.535731 8.015557 18.987447 8.015557l239.051491-0.00921c14.718213 0 26.643823-11.93482 26.643823-26.644847C831.741743 443.990047 819.816133 432.063413 805.09792 432.063413z" p-id="1271"></path></svg>